
        <svg xmlns="http://www.w3.org/2000/svg" xmlns:xlink="http://www.w3.org/1999/xlink" version="1.1" width="3187.5" height="885.2647121957065" viewBox="0 0 3187.5 885.2647121957065">
			
			<g transform="scale(9.375) translate(10, 10)">
				<defs id="SvgjsDefs1373"/><g id="SvgjsG1374" featureKey="symbolFeature-0" transform="matrix(0.8715963988396713,0,0,0.8715963988396713,20.870373841787618,-38.08091658596638)" fill="#fff"><path xmlns="http://www.w3.org/2000/svg" d="M50.643,46.25c-10.685,0-20.4,4.205-27.601,11.036L2.775,51.711l-3.691-6.493l-5.552-1.527l3.693,6.493l-6.818-1.875  l-0.796,2.893l6.819,1.875l-6.496,3.69l5.553,1.527l6.492-3.69l18.678,5.138c-6.023,6.769-9.79,15.58-10.124,25.252h-21.651  l-5.281-5.281h-5.758l5.284,5.281h-7.072v3h7.072l-5.284,5.281h5.758l5.281-5.281h21.656c0.458,11.639,5.892,22.016,14.232,29.062  l-7.554,1.618l-6.271-4.06l-5.631,1.206l6.273,4.059l-6.915,1.48l0.628,2.933l6.915-1.479l-4.061,6.271l5.631-1.206l4.058-6.271  l10.057-2.153c6.47,4.464,14.303,7.086,22.741,7.086c22.136,0,40.146-18.008,40.146-40.143C90.788,64.26,72.779,46.25,50.643,46.25z   M29.534,62.184l10.376,2.854c-7.335,3.775-12.463,11.255-12.881,19.957h-8.496C18.926,75.908,23.108,67.793,29.534,62.184z   M43.33,87.994c0.755,3.293,3.698,5.751,7.219,5.751c4.094,0,7.413-3.319,7.413-7.413s-3.319-7.413-7.413-7.413  c-3.636,0-6.655,2.621-7.286,6.075h-8.204c0.594-8.135,7.386-14.577,15.67-14.577c8.673,0,15.729,7.057,15.729,15.729  s-7.056,15.729-15.729,15.729c-8.047,0-14.691-6.077-15.61-13.881H43.33z M50.643,118.539c-3.635,0-7.126-0.615-10.387-1.732  l29.813-6.384c-0.175-0.984-0.344-1.971-0.514-2.956l-34.027,7.287c-9.682-5.182-16.418-15.172-16.989-26.76h8.541  c0.946,12.223,11.188,21.881,23.649,21.881c13.084,0,23.729-10.645,23.729-23.729c0-13.085-10.645-23.729-23.729-23.729  c-2.114,0-4.163,0.282-6.115,0.803L32.49,59.885c5.169-3.551,11.421-5.634,18.152-5.634c17.725,0,32.146,14.42,32.146,32.146  C82.788,104.12,68.368,118.539,50.643,118.539z"/></g><g id="SvgjsG1375" featureKey="nameFeature-0" transform="matrix(0.8419093470102493,0,0,0.8419093470102493,118.41721103381576,16.14311328405666)" fill="#fff"><path d="M4.96 25.68 l0 -3.88 c0 -2.96 0 -5.52 -0.04 -6.6 c-0.04 -1.32 -0.56 -2 -1.12 -2 l-1.6 0 c-0.2 0 -0.24 -0.12 -0.24 -0.28 l0 -1.08 c0 -0.2 0.04 -0.28 0.24 -0.28 c0.36 0 1.6 0.12 5.96 0.12 c2.24 0 5.76 -0.12 7.4 -0.12 c3.12 0 5.44 1.12 7.08 2.64 c1.44 1.32 2.28 2.88 2.28 4.36 c0 5.08 -3.8 7.36 -7.32 7.68 l0 0.28 c1.24 0.4 1.88 1.16 2.64 2.12 c0.52 0.64 2.72 4.2 3.04 4.68 c0.24 0.36 2.4 3.4 3.2 4.32 c0.48 0.52 2 0.84 2.92 0.84 c0.28 0 0.32 0.16 0.32 0.32 l0 0.96 c0 0.24 -0.04 0.36 -0.32 0.36 c-0.32 0 -1.36 -0.12 -4.44 -0.12 c-1.16 0 -2.64 0.08 -3.8 0.12 c-1.2 -0.92 -3.68 -5.56 -4.36 -6.92 c-1.36 -2.72 -3 -5.68 -4.92 -5.68 l-1.36 0 l0 2.04 c0 2.36 0.12 6.84 0.2 7.36 c0.08 0.84 0.4 1.56 1 1.56 l1.64 0 c0.28 0 0.32 0.12 0.32 0.32 l0 0.96 c0 0.28 -0.04 0.36 -0.64 0.36 c-0.04 0 -1.04 -0.12 -5.24 -0.12 c-4.24 0 -5.16 0.12 -5.6 0.12 c-0.32 0 -0.32 -0.12 -0.32 -0.4 l0 -0.92 c0 -0.2 0 -0.32 0.2 -0.32 l1.2 0 c0.88 0 1.6 -0.28 1.6 -1.28 c0.08 -3.96 0.08 -7.72 0.08 -11.52 z M10.76 14.440000000000001 l-0.2 11.68 c0.76 0.04 1.24 0.04 1.6 0.04 c5.28 0 6.52 -5.04 6.52 -6.92 c0 -1.84 -0.64 -3.6 -1.52 -4.48 c-1.44 -1.28 -3.24 -1.76 -4.44 -1.76 c-0.68 0 -1.2 0.08 -1.52 0.36 c-0.24 0.16 -0.36 0.6 -0.44 1.08 z M44.96 30.04 l-9.16 0 l0 1.08 c0 4.16 2.36 6.2 5.28 6.2 c1.96 0 3.56 -0.92 4.36 -2.2 c0.08 -0.2 0.24 -0.24 0.4 -0.12 l0.68 0.36 c0.16 0.08 0.28 0.28 -0.08 0.96 c-0.72 1.48 -3.32 4.24 -7.08 4.24 c-2.56 0 -4.68 -0.44 -6 -1.88 c-2.04 -2.2 -2.72 -3.76 -2.76 -6.88 c0 -1.12 0 -3.24 1.8 -5.88 c1.44 -2.12 3.88 -3.28 6.96 -3.28 c6.48 0 6.84 6.2 6.84 6.84 c0 0.52 -0.36 0.56 -1.24 0.56 z M35.84 28.52 l3.84 0 c0.88 0 1.28 -0.2 1.28 -0.8 c0 -1.76 -0.72 -3.48 -1.96 -3.48 c-1.88 0 -2.88 1.48 -3.16 4.28 z M46.599999999999994 24.2 l0 -0.8 c0 -0.28 0.08 -0.32 0.44 -0.32 c0.44 0 1.12 0.12 5.28 0.12 c2.72 0 3.76 -0.12 4.2 -0.12 c0.32 0 0.4 0.08 0.4 0.32 l0 0.8 c0 0.24 -0.04 0.4 -0.28 0.4 l-0.52 0 c-0.52 0 -1.04 0.24 -1.04 0.68 c0 0.72 1.2 3.92 1.48 4.64 l1.72 4.32 l0.24 0 c0.32 -0.68 2.4 -5.64 3.2 -7.84 c0.36 -1 -0.28 -1.8 -1 -1.8 l-0.72 0 c-0.12 0 -0.16 -0.2 -0.16 -0.4 l0 -0.8 c0 -0.24 0.08 -0.32 0.24 -0.32 c0.56 0 1.44 0.12 3.88 0.12 c2.08 0 3.04 -0.12 3.4 -0.12 c0.32 0 0.36 0.04 0.36 0.36 l0 0.76 c0 0.28 0 0.4 -0.2 0.4 l-0.68 0 c-0.56 0 -1.36 0.08 -1.84 0.6 c-0.72 0.8 -2.48 4.36 -3.4 6.28 c-0.48 1.04 -3.64 7.84 -3.88 8.32 c-0.24 0.44 -0.48 0.8 -1.04 0.8 c-0.52 0 -0.8 -0.4 -1.16 -1 c-0.4 -0.6 -3.64 -7.76 -3.8 -8.16 s-2.04 -4.88 -2.32 -5.36 c-0.68 -1.12 -1.04 -1.48 -1.76 -1.48 l-0.8 0 c-0.2 0 -0.24 -0.16 -0.24 -0.4 z  M74.76 16.76 c0 1.28 -0.88 2.68 -3.04 2.72 c-1.6 0.04 -2.8 -1.04 -2.8 -2.6 c0 -1.28 1.32 -2.44 3 -2.44 c1.88 0 2.84 1.2 2.84 2.32 z M77.56 39.72 c0 0.28 -0.08 0.4 -0.36 0.4 c-0.32 0 -2.16 -0.12 -5.64 -0.12 c-2.32 0 -3.88 0.12 -4.32 0.12 c-0.2 0 -0.32 -0.08 -0.32 -0.4 l0 -0.8 c0 -0.24 0.12 -0.32 0.4 -0.32 l1.48 0 c0.44 0 0.72 -0.16 0.76 -0.8 c0.08 -1.2 0.08 -2.44 0.08 -3.56 l-0.08 -5.6 c0 -1.12 -0.24 -1.92 -1.92 -2.52 c-0.44 -0.16 -0.48 -0.32 -0.48 -0.56 l0 -0.44 c0 -0.12 0.08 -0.2 0.44 -0.32 l5.96 -1.92 c0.44 -0.16 0.8 -0.24 1.08 -0.24 c0.32 0 0.44 0.2 0.4 0.48 c-0.08 0.68 -0.08 3.2 -0.08 6.72 l0 4.28 c0 1.56 0 3 0.04 3.44 c0.08 0.76 0.28 1.04 0.72 1.04 l1.44 0 c0.32 0 0.4 0.12 0.4 0.36 l0 0.76 z M91.12 24.240000000000002 l0.56 2.96 c0.04 0.2 0 0.28 -0.16 0.36 l-0.72 0.32 c-0.12 0.08 -0.24 0.04 -0.4 -0.12 l-2.24 -2.4 c-0.52 -0.52 -1.28 -1.16 -2.48 -1.16 s-2.36 0.8 -2.36 2.16 c0.08 1.4 0.56 1.8 3.52 2.6 c1.96 0.52 2.92 0.8 4.12 2.08 c1.04 1.04 1.28 2 1.28 3.4 c0 3.56 -2.8 6.12 -7.16 6.12 c-2.24 0 -4.2 -0.8 -4.68 -1.16 c-0.16 -0.12 -0.2 -0.28 -0.24 -0.52 l-0.52 -3.84 c0 -0.2 0.12 -0.28 0.28 -0.32 l0.72 -0.2 c0.12 -0.04 0.2 0 0.28 0.16 l1.6 2.36 c0.72 1.04 1.64 2.04 3.48 2.04 c1.48 0 2.36 -1.04 2.36 -2.44 c0 -1.6 -1.16 -2.12 -3.76 -2.92 c-2.84 -0.84 -4.88 -2.2 -4.88 -5.08 c0 -1.88 0.56 -3.44 2.08 -4.56 c1.6 -1.16 2.72 -1.44 4.4 -1.44 c2.16 0 3.48 0.48 4.2 0.84 c0.6 0.28 0.68 0.48 0.72 0.76 z M101.88 16.76 c0 1.28 -0.88 2.68 -3.04 2.72 c-1.6 0.04 -2.8 -1.04 -2.8 -2.6 c0 -1.28 1.32 -2.44 3 -2.44 c1.88 0 2.84 1.2 2.84 2.32 z M104.67999999999999 39.72 c0 0.28 -0.08 0.4 -0.36 0.4 c-0.32 0 -2.16 -0.12 -5.64 -0.12 c-2.32 0 -3.88 0.12 -4.32 0.12 c-0.2 0 -0.32 -0.08 -0.32 -0.4 l0 -0.8 c0 -0.24 0.12 -0.32 0.4 -0.32 l1.48 0 c0.44 0 0.72 -0.16 0.76 -0.8 c0.08 -1.2 0.08 -2.44 0.08 -3.56 l-0.08 -5.6 c0 -1.12 -0.24 -1.92 -1.92 -2.52 c-0.44 -0.16 -0.48 -0.32 -0.48 -0.56 l0 -0.44 c0 -0.12 0.08 -0.2 0.44 -0.32 l5.96 -1.92 c0.44 -0.16 0.8 -0.24 1.08 -0.24 c0.32 0 0.44 0.2 0.4 0.48 c-0.08 0.68 -0.08 3.2 -0.08 6.72 l0 4.28 c0 1.56 0 3 0.04 3.44 c0.08 0.76 0.28 1.04 0.72 1.04 l1.44 0 c0.32 0 0.4 0.12 0.4 0.36 l0 0.76 z M115.39999999999999 40.56 c-2.92 0 -4.92 -0.6 -6.96 -2.92 c-1.52 -1.68 -2.12 -3.8 -2.12 -6.32 c0 -1.8 1 -4.76 3.44 -6.64 c2.04 -1.6 4.08 -2.04 5.96 -2.04 c2.76 0 4.64 0.84 6.44 2.52 c1.96 1.76 2.76 3.92 2.76 6.36 c0 2.32 -1 4.56 -2.56 6.24 c-1.92 2 -4.24 2.8 -6.96 2.8 z M115.63999999999999 38.88 c2.2 0 3.2 -3.24 3.2 -7.64 c0 -4.64 -1.6 -6.92 -3.36 -6.92 c-1 0 -1.64 0.28 -2.16 1.08 c-0.8 1.24 -1.32 2.96 -1.32 6.2 c0 2.32 0.2 3.84 1 5.56 c0.52 1.08 1.16 1.72 2.64 1.72 z M134.07999999999998 23.12 l0.44 1.72 l0.32 0 c0.44 -0.52 1.16 -1.04 1.92 -1.44 c0.88 -0.48 1.76 -0.76 3.08 -0.76 c1.56 0 3.08 0.16 4.12 1.12 c1.68 1.56 1.8 2.56 1.8 4.56 l0 4.24 c0 1.36 -0.08 3.24 -0.16 4.64 c-0.04 1.2 0.6 1.4 0.96 1.4 l1.08 0 c0.36 0 0.44 0.12 0.44 0.36 l0 0.72 c0 0.28 -0.08 0.44 -0.32 0.44 c-0.28 0 -1.52 -0.12 -4.72 -0.12 c-2.64 0 -3.92 0.12 -4.2 0.12 c-0.24 0 -0.32 -0.12 -0.32 -0.44 l0 -0.72 c0 -0.28 0.12 -0.36 0.52 -0.36 l0.44 0 c0.28 0 0.64 -0.2 0.72 -0.92 c0.16 -1.04 0.24 -2.32 0.24 -4.16 l0 -4.28 c0 -1.52 -0.12 -2.56 -0.96 -3.32 c-0.72 -0.64 -1.28 -0.72 -1.96 -0.72 c-0.72 0 -1.24 0.2 -2.04 0.8 c-0.48 0.36 -0.8 1.44 -0.8 3.08 l-0.08 8.2 c0 0.72 0.28 1.32 0.64 1.32 l0.52 0 c0.32 0 0.4 0.12 0.4 0.4 l0 0.76 c0 0.24 -0.08 0.36 -0.28 0.36 c-0.28 0 -1.36 -0.12 -4 -0.12 c-2.84 0 -4.12 0.12 -4.36 0.12 c-0.2 0 -0.28 -0.12 -0.28 -0.36 l0 -0.8 c0 -0.24 0.08 -0.36 0.4 -0.36 l0.6 0 c0.44 0 1.12 -0.12 1.12 -0.8 l0 -8.88 c0 -1.2 -0.68 -1.88 -1.6 -2.32 l-0.36 -0.16 c-0.24 -0.12 -0.28 -0.28 -0.28 -0.44 l0 -0.36 c0 -0.2 0.16 -0.32 0.36 -0.4 l5.12 -2.32 c0.32 -0.12 0.6 -0.28 0.92 -0.28 c0.24 0 0.48 0.2 0.56 0.48 z M159.76 37.64 l0 -20.64 c0 -1.32 -0.16 -2.28 -2.16 -2.88 c-0.4 -0.12 -0.56 -0.28 -0.56 -0.4 l0 -0.72 c0 -0.16 0.12 -0.32 0.52 -0.4 c2.08 -0.36 4.84 -1.24 5.8 -1.56 c0.76 -0.36 1.24 -0.52 1.56 -0.52 s0.4 0.2 0.36 0.68 c-0.16 1.92 -0.16 7.8 -0.2 13.16 l-0.04 5.84 c0.44 0 0.84 -0.16 1.32 -0.6 c1.68 -1.56 3.56 -3.68 3.56 -4.28 c0 -0.48 -0.52 -0.72 -0.92 -0.72 c-0.28 0 -0.32 -0.12 -0.32 -0.36 l0 -0.84 c0 -0.2 0.08 -0.32 0.28 -0.32 c0.24 0 1.68 0.12 4.28 0.12 c2.4 0 3.4 -0.12 3.68 -0.12 c0.16 0 0.24 0.12 0.24 0.36 l0 0.84 c0 0.24 -0.08 0.32 -0.24 0.32 l-0.48 0 c-0.48 0 -1.28 0.24 -2.28 0.68 c-1.24 0.56 -4.28 3.24 -5.12 4.08 c1.48 1.76 6.28 7.76 7.44 8.64 c0.64 0.48 1.68 0.6 2.12 0.6 c0.24 0 0.32 0.08 0.32 0.36 l0 0.8 c0 0.24 -0.08 0.36 -0.36 0.36 c-0.32 0 -1.44 -0.12 -4.72 -0.12 c-2.36 0 -4.04 0.12 -4.36 0.12 c-0.2 0 -0.28 -0.12 -0.28 -0.48 l0 -0.64 c0 -0.2 0.08 -0.32 0.24 -0.32 l0.28 0 c0.32 0 0.4 -0.2 0.4 -0.48 c0 -0.4 -3.12 -4.6 -4.28 -6.12 c-0.32 -0.4 -0.64 -0.48 -0.88 -0.48 l0 5.96 c0 0.76 0.36 1.04 0.76 1.04 l0.76 0 c0.28 0 0.36 0.08 0.36 0.32 l0 0.84 c0 0.24 -0.08 0.36 -0.32 0.36 s-1.56 -0.12 -4.12 -0.12 c-2.8 0 -4.2 0.12 -4.48 0.12 c-0.12 0 -0.2 -0.16 -0.2 -0.4 l0 -0.76 c0 -0.28 0.12 -0.36 0.4 -0.36 l0.76 0 c0.52 0 0.88 -0.44 0.88 -0.96 z M187.84 29.36 l0 -2.12 c0 -0.8 -0.08 -1.72 -0.6 -2.2 c-0.4 -0.36 -1.04 -0.48 -1.68 -0.48 c-0.72 0 -1.4 0.16 -2.12 0.64 c-0.6 0.4 -0.12 1.08 -0.12 2.36 c0 1.36 -1 2.28 -2.6 2.28 c-0.92 0 -1.72 -0.56 -1.72 -1.44 s0.28 -2.08 1.12 -2.8 c1.68 -1.52 4.44 -2.96 7.68 -2.96 c2.56 0 3.24 0.4 4.08 1.16 c0.88 0.8 1.12 1.96 1.12 3.4 l0.08 7.96 c0.04 2.08 0.16 2.72 0.92 2.72 c0.56 0 1 -0.44 1.16 -0.72 c0.16 -0.24 0.28 -0.28 0.4 -0.2 l0.56 0.32 c0.16 0.08 0.28 0.2 0.12 0.56 c-0.36 0.84 -1.56 2.72 -4.04 2.72 c-1.56 0 -3.04 -0.56 -3.8 -2.44 l-0.2 0 c-1 0.92 -1.84 1.48 -3.44 2.08 c-0.8 0.28 -1.72 0.36 -2.88 0.36 c-1.4 0 -2.64 -1.52 -2.64 -3.68 c0 -1.76 0.84 -3.6 3.44 -4.88 c3.12 -1.48 4.12 -1.92 5.16 -2.64 z M187.88 36.64 l0 -5.68 c-1.96 1.12 -3.6 1.72 -3.6 4.48 c0 1.84 0.84 2.6 1.72 2.64 c1.08 -0.08 1.88 -1.08 1.88 -1.44 z M204.36 29.439999999999998 l0 7.52 c0 1.24 0.4 1.64 1.24 1.64 l1.64 0 c0.24 0 0.28 0.12 0.28 0.36 l0 0.8 c0 0.24 -0.04 0.36 -0.2 0.36 c-0.24 0 -2.08 -0.12 -5.68 -0.12 c-3.08 0 -4.76 0.12 -5 0.12 c-0.16 0 -0.24 -0.08 -0.24 -0.4 l0 -0.76 c0 -0.28 0.08 -0.36 0.44 -0.36 l1.16 0 c0.6 0 0.96 -0.24 1.04 -0.96 c0.08 -1.12 0.08 -2.52 0.08 -4.52 l0 -3.32 c0 -1.72 -0.4 -2.44 -1.6 -3.12 l-0.68 -0.4 c-0.24 -0.12 -0.32 -0.2 -0.32 -0.36 l0 -0.36 c0 -0.16 0.08 -0.24 0.32 -0.32 l5.6 -2.44 c0.24 -0.08 0.4 -0.16 0.64 -0.16 c0.28 0 0.44 0.24 0.48 0.48 l0.36 3.12 l0.28 0 c1.24 -2.64 3 -3.84 4.76 -3.84 c1.2 0 2.12 0.92 2.12 2.32 c0 1.08 -1.24 2.28 -2.56 2.28 c-0.56 0 -1.08 -0.12 -1.44 -0.36 c-0.32 -0.2 -0.68 -0.28 -1 -0.28 c-0.4 0 -0.8 0.2 -1.04 0.72 c-0.52 1.08 -0.68 1.84 -0.68 2.36 z M218.96 24.52 l0 7.48 c0 1.6 0 4.2 0.12 5.36 c0.04 0.68 0.16 1.24 1 1.24 l1.36 0 c0.36 0 0.44 0.12 0.44 0.36 l0 0.76 c0 0.24 -0.08 0.4 -0.24 0.4 c-0.28 0 -2.04 -0.12 -5.2 -0.12 c-3.36 0 -4.96 0.12 -5.32 0.12 c-0.2 0 -0.28 -0.16 -0.28 -0.48 l0 -0.68 c0 -0.28 0.08 -0.36 0.52 -0.36 l1.2 0 c0.44 0 1.08 -0.28 1.08 -1.72 l0 -12.72 c0 -2.84 0 -6.08 -0.08 -7.12 c-0.08 -1.36 -0.92 -1.92 -2.2 -2.32 l-0.72 -0.24 c-0.28 -0.12 -0.32 -0.24 -0.32 -0.44 l0 -0.6 c0 -0.12 0.08 -0.28 0.36 -0.32 c1.8 -0.36 5.96 -1.72 7.12 -2.32 c0.44 -0.2 0.68 -0.28 0.88 -0.28 c0.24 0 0.4 0.2 0.36 0.72 c-0.04 2.2 -0.08 10.52 -0.08 13.28 z M237.72 30.04 l-9.16 0 l0 1.08 c0 4.16 2.36 6.2 5.28 6.2 c1.96 0 3.56 -0.92 4.36 -2.2 c0.08 -0.2 0.24 -0.24 0.4 -0.12 l0.68 0.36 c0.16 0.08 0.28 0.28 -0.08 0.96 c-0.72 1.48 -3.32 4.24 -7.08 4.24 c-2.56 0 -4.68 -0.44 -6 -1.88 c-2.04 -2.2 -2.72 -3.76 -2.76 -6.88 c0 -1.12 0 -3.24 1.8 -5.88 c1.44 -2.12 3.88 -3.28 6.96 -3.28 c6.48 0 6.84 6.2 6.84 6.84 c0 0.52 -0.36 0.56 -1.24 0.56 z M228.6 28.52 l3.84 0 c0.88 0 1.28 -0.2 1.28 -0.8 c0 -1.76 -0.72 -3.48 -1.96 -3.48 c-1.88 0 -2.88 1.48 -3.16 4.28 z"/></g>
			</g>
		</svg>
	